<mxfile host="Electron" modified="2023-11-09T18:51:20.278Z" agent="Mozilla/5.0 (Windows NT 10.0; Win64; x64) AppleWebKit/537.36 (KHTML, like Gecko) draw.io/21.7.5 Chrome/114.0.5735.289 Electron/25.8.1 Safari/537.36" etag="DgE01rwB7B4Tvyd2Xubl" version="21.7.5" type="device">
  <diagram name="Сторінка-1" id="Jts2vq-43zfaNWqY2Asb">
    <mxGraphModel dx="1500" dy="1024" grid="1" gridSize="10" guides="1" tooltips="1" connect="1" arrows="1" fold="1" page="1" pageScale="1" pageWidth="827" pageHeight="1169" math="0" shadow="0">
      <root>
        <mxCell id="0" />
        <mxCell id="1" parent="0" />
        <mxCell id="XrT23xFrw-7pHtTjx7TK-3" value="" style="edgeStyle=orthogonalEdgeStyle;rounded=0;orthogonalLoop=1;jettySize=auto;html=1;" edge="1" parent="1" source="XrT23xFrw-7pHtTjx7TK-1" target="XrT23xFrw-7pHtTjx7TK-2">
          <mxGeometry relative="1" as="geometry" />
        </mxCell>
        <mxCell id="XrT23xFrw-7pHtTjx7TK-1" value="Start&lt;br&gt;" style="ellipse;whiteSpace=wrap;html=1;" vertex="1" parent="1">
          <mxGeometry x="70" y="40" width="140" height="40" as="geometry" />
        </mxCell>
        <mxCell id="XrT23xFrw-7pHtTjx7TK-5" value="" style="edgeStyle=orthogonalEdgeStyle;rounded=0;orthogonalLoop=1;jettySize=auto;html=1;" edge="1" parent="1" source="XrT23xFrw-7pHtTjx7TK-2" target="XrT23xFrw-7pHtTjx7TK-4">
          <mxGeometry relative="1" as="geometry" />
        </mxCell>
        <mxCell id="XrT23xFrw-7pHtTjx7TK-12" style="edgeStyle=orthogonalEdgeStyle;rounded=0;orthogonalLoop=1;jettySize=auto;html=1;exitX=1;exitY=0;exitDx=0;exitDy=0;entryX=0;entryY=0.5;entryDx=0;entryDy=0;" edge="1" parent="1" source="XrT23xFrw-7pHtTjx7TK-2" target="XrT23xFrw-7pHtTjx7TK-7">
          <mxGeometry relative="1" as="geometry">
            <Array as="points">
              <mxPoint x="250" y="150" />
              <mxPoint x="250" y="55" />
            </Array>
          </mxGeometry>
        </mxCell>
        <mxCell id="XrT23xFrw-7pHtTjx7TK-2" value="Ask for arr size&lt;br&gt;n;" style="shape=parallelogram;perimeter=parallelogramPerimeter;whiteSpace=wrap;html=1;fixedSize=1;" vertex="1" parent="1">
          <mxGeometry x="80" y="150" width="120" height="60" as="geometry" />
        </mxCell>
        <mxCell id="XrT23xFrw-7pHtTjx7TK-9" style="edgeStyle=orthogonalEdgeStyle;rounded=0;orthogonalLoop=1;jettySize=auto;html=1;exitX=1;exitY=0;exitDx=0;exitDy=0;entryX=0;entryY=1;entryDx=0;entryDy=0;" edge="1" parent="1" source="XrT23xFrw-7pHtTjx7TK-4" target="XrT23xFrw-7pHtTjx7TK-7">
          <mxGeometry relative="1" as="geometry" />
        </mxCell>
        <mxCell id="XrT23xFrw-7pHtTjx7TK-4" value="Fill arr&lt;br&gt;arr[i]" style="shape=parallelogram;perimeter=parallelogramPerimeter;whiteSpace=wrap;html=1;fixedSize=1;" vertex="1" parent="1">
          <mxGeometry x="80" y="290" width="120" height="60" as="geometry" />
        </mxCell>
        <mxCell id="XrT23xFrw-7pHtTjx7TK-11" style="edgeStyle=orthogonalEdgeStyle;rounded=0;orthogonalLoop=1;jettySize=auto;html=1;exitX=1;exitY=1;exitDx=0;exitDy=0;" edge="1" parent="1" source="XrT23xFrw-7pHtTjx7TK-7" target="XrT23xFrw-7pHtTjx7TK-10">
          <mxGeometry relative="1" as="geometry" />
        </mxCell>
        <mxCell id="XrT23xFrw-7pHtTjx7TK-26" style="edgeStyle=orthogonalEdgeStyle;rounded=0;orthogonalLoop=1;jettySize=auto;html=1;exitX=1;exitY=0.5;exitDx=0;exitDy=0;entryX=0.5;entryY=0;entryDx=0;entryDy=0;" edge="1" parent="1">
          <mxGeometry relative="1" as="geometry">
            <mxPoint x="440" y="640" as="targetPoint" />
            <mxPoint x="440" y="60" as="sourcePoint" />
            <Array as="points">
              <mxPoint x="555" y="60" />
              <mxPoint x="555" y="61" />
              <mxPoint x="680" y="61" />
              <mxPoint x="680" y="600" />
              <mxPoint x="440" y="600" />
            </Array>
          </mxGeometry>
        </mxCell>
        <mxCell id="XrT23xFrw-7pHtTjx7TK-7" value="bubble sort" style="ellipse;whiteSpace=wrap;html=1;" vertex="1" parent="1">
          <mxGeometry x="320" y="40" width="120" height="30" as="geometry" />
        </mxCell>
        <mxCell id="XrT23xFrw-7pHtTjx7TK-14" value="" style="edgeStyle=orthogonalEdgeStyle;rounded=0;orthogonalLoop=1;jettySize=auto;html=1;" edge="1" parent="1" source="XrT23xFrw-7pHtTjx7TK-10" target="XrT23xFrw-7pHtTjx7TK-13">
          <mxGeometry relative="1" as="geometry" />
        </mxCell>
        <mxCell id="XrT23xFrw-7pHtTjx7TK-10" value="serch median" style="ellipse;whiteSpace=wrap;html=1;" vertex="1" parent="1">
          <mxGeometry x="380" y="110" width="120" height="30" as="geometry" />
        </mxCell>
        <mxCell id="XrT23xFrw-7pHtTjx7TK-16" value="" style="edgeStyle=orthogonalEdgeStyle;rounded=0;orthogonalLoop=1;jettySize=auto;html=1;entryX=0.5;entryY=0;entryDx=0;entryDy=0;" edge="1" parent="1" target="XrT23xFrw-7pHtTjx7TK-15">
          <mxGeometry relative="1" as="geometry">
            <mxPoint x="400" y="235" as="sourcePoint" />
            <mxPoint x="260" y="290" as="targetPoint" />
            <Array as="points">
              <mxPoint x="320" y="235" />
            </Array>
          </mxGeometry>
        </mxCell>
        <mxCell id="XrT23xFrw-7pHtTjx7TK-13" value="If n % 2 =0" style="rhombus;whiteSpace=wrap;html=1;" vertex="1" parent="1">
          <mxGeometry x="400" y="195" width="80" height="80" as="geometry" />
        </mxCell>
        <mxCell id="XrT23xFrw-7pHtTjx7TK-22" style="edgeStyle=orthogonalEdgeStyle;rounded=0;orthogonalLoop=1;jettySize=auto;html=1;exitX=0.5;exitY=1;exitDx=0;exitDy=0;entryX=0.5;entryY=0;entryDx=0;entryDy=0;" edge="1" parent="1" source="XrT23xFrw-7pHtTjx7TK-15" target="XrT23xFrw-7pHtTjx7TK-21">
          <mxGeometry relative="1" as="geometry" />
        </mxCell>
        <mxCell id="XrT23xFrw-7pHtTjx7TK-15" value="&lt;div style=&quot;color: rgb(173, 186, 199); font-family: Consolas, &amp;quot;Courier New&amp;quot;, monospace; font-size: 14px; line-height: 19px;&quot;&gt;&lt;span style=&quot;background-color: rgb(24, 20, 29);&quot;&gt;return (&lt;span style=&quot;color: rgb(246, 157, 80);&quot;&gt;arr&lt;/span&gt;[(&lt;span style=&quot;color: rgb(246, 157, 80);&quot;&gt;n&lt;/span&gt; &lt;span style=&quot;color: rgb(244, 112, 103);&quot;&gt;-&lt;/span&gt; &lt;span style=&quot;color: rgb(108, 182, 255);&quot;&gt;1&lt;/span&gt;) &lt;span style=&quot;color: rgb(244, 112, 103);&quot;&gt;/&lt;/span&gt; &lt;span style=&quot;color: rgb(108, 182, 255);&quot;&gt;2&lt;/span&gt;] &lt;span style=&quot;color: rgb(244, 112, 103);&quot;&gt;+&lt;/span&gt; &lt;span style=&quot;color: rgb(246, 157, 80);&quot;&gt;arr&lt;/span&gt;[&lt;span style=&quot;color: rgb(246, 157, 80);&quot;&gt;n&lt;/span&gt; &lt;span style=&quot;color: rgb(244, 112, 103);&quot;&gt;/&lt;/span&gt; &lt;span style=&quot;color: rgb(108, 182, 255);&quot;&gt;2&lt;/span&gt;]) &lt;span style=&quot;color: rgb(244, 112, 103);&quot;&gt;/&lt;/span&gt; &lt;span style=&quot;color: rgb(108, 182, 255);&quot;&gt;2&lt;/span&gt;;&lt;/span&gt;&lt;/div&gt;" style="rounded=1;whiteSpace=wrap;html=1;" vertex="1" parent="1">
          <mxGeometry x="220" y="360" width="200" height="90" as="geometry" />
        </mxCell>
        <mxCell id="XrT23xFrw-7pHtTjx7TK-17" value="Yes" style="text;html=1;strokeColor=none;fillColor=none;align=center;verticalAlign=middle;whiteSpace=wrap;rounded=0;" vertex="1" parent="1">
          <mxGeometry x="340" y="210" width="60" height="30" as="geometry" />
        </mxCell>
        <mxCell id="XrT23xFrw-7pHtTjx7TK-18" value="" style="edgeStyle=orthogonalEdgeStyle;rounded=0;orthogonalLoop=1;jettySize=auto;html=1;entryX=0.5;entryY=0;entryDx=0;entryDy=0;exitX=1;exitY=0.5;exitDx=0;exitDy=0;" edge="1" parent="1" target="XrT23xFrw-7pHtTjx7TK-19" source="XrT23xFrw-7pHtTjx7TK-13">
          <mxGeometry relative="1" as="geometry">
            <mxPoint x="660" y="240" as="sourcePoint" />
            <mxPoint x="520" y="295" as="targetPoint" />
            <Array as="points">
              <mxPoint x="560" y="235" />
            </Array>
          </mxGeometry>
        </mxCell>
        <mxCell id="XrT23xFrw-7pHtTjx7TK-23" style="edgeStyle=orthogonalEdgeStyle;rounded=0;orthogonalLoop=1;jettySize=auto;html=1;exitX=0.5;exitY=1;exitDx=0;exitDy=0;entryX=0.5;entryY=0;entryDx=0;entryDy=0;" edge="1" parent="1" source="XrT23xFrw-7pHtTjx7TK-19" target="XrT23xFrw-7pHtTjx7TK-21">
          <mxGeometry relative="1" as="geometry">
            <mxPoint x="440" y="480" as="targetPoint" />
          </mxGeometry>
        </mxCell>
        <mxCell id="XrT23xFrw-7pHtTjx7TK-19" value="&lt;div style=&quot;color: rgb(173, 186, 199); font-family: Consolas, &amp;quot;Courier New&amp;quot;, monospace; font-size: 14px; line-height: 19px;&quot;&gt;&lt;span style=&quot;background-color: rgb(24, 20, 29);&quot;&gt;return (&lt;span style=&quot;color: rgb(246, 157, 80);&quot;&gt;arr&lt;/span&gt;[(&lt;span style=&quot;color: rgb(246, 157, 80);&quot;&gt;n&lt;/span&gt; &lt;span style=&quot;color: rgb(244, 112, 103);&quot;&gt;-&lt;/span&gt; &lt;span style=&quot;color: rgb(108, 182, 255);&quot;&gt;1&lt;/span&gt;) &lt;span style=&quot;color: rgb(244, 112, 103);&quot;&gt;/&lt;/span&gt; &lt;span style=&quot;color: rgb(108, 182, 255);&quot;&gt;2&lt;/span&gt;] &lt;span style=&quot;color: rgb(244, 112, 103);&quot;&gt;+&lt;/span&gt; &lt;span style=&quot;color: rgb(246, 157, 80);&quot;&gt;arr&lt;/span&gt;[&lt;span style=&quot;color: rgb(246, 157, 80);&quot;&gt;n&lt;/span&gt; &lt;span style=&quot;color: rgb(244, 112, 103);&quot;&gt;/&lt;/span&gt; &lt;span style=&quot;color: rgb(108, 182, 255);&quot;&gt;2&lt;/span&gt;]) &lt;span style=&quot;color: rgb(244, 112, 103);&quot;&gt;/&lt;/span&gt; &lt;span style=&quot;color: rgb(108, 182, 255);&quot;&gt;2&lt;/span&gt;;&lt;/span&gt;&lt;/div&gt;" style="rounded=1;whiteSpace=wrap;html=1;" vertex="1" parent="1">
          <mxGeometry x="460" y="360" width="200" height="90" as="geometry" />
        </mxCell>
        <mxCell id="XrT23xFrw-7pHtTjx7TK-20" value="No" style="text;html=1;strokeColor=none;fillColor=none;align=center;verticalAlign=middle;whiteSpace=wrap;rounded=0;" vertex="1" parent="1">
          <mxGeometry x="490" y="210" width="60" height="30" as="geometry" />
        </mxCell>
        <mxCell id="XrT23xFrw-7pHtTjx7TK-31" style="edgeStyle=orthogonalEdgeStyle;rounded=0;orthogonalLoop=1;jettySize=auto;html=1;exitX=0.5;exitY=1;exitDx=0;exitDy=0;entryX=0.5;entryY=0;entryDx=0;entryDy=0;" edge="1" parent="1" source="XrT23xFrw-7pHtTjx7TK-21">
          <mxGeometry relative="1" as="geometry">
            <mxPoint x="440" y="640" as="targetPoint" />
          </mxGeometry>
        </mxCell>
        <mxCell id="XrT23xFrw-7pHtTjx7TK-21" value="Return Median" style="rounded=1;whiteSpace=wrap;html=1;" vertex="1" parent="1">
          <mxGeometry x="380" y="510" width="120" height="60" as="geometry" />
        </mxCell>
        <mxCell id="XrT23xFrw-7pHtTjx7TK-34" value="" style="edgeStyle=orthogonalEdgeStyle;rounded=0;orthogonalLoop=1;jettySize=auto;html=1;" edge="1" parent="1" source="XrT23xFrw-7pHtTjx7TK-32" target="XrT23xFrw-7pHtTjx7TK-33">
          <mxGeometry relative="1" as="geometry">
            <Array as="points">
              <mxPoint x="440" y="750" />
              <mxPoint x="440" y="750" />
            </Array>
          </mxGeometry>
        </mxCell>
        <mxCell id="XrT23xFrw-7pHtTjx7TK-38" value="" style="edgeStyle=orthogonalEdgeStyle;rounded=0;orthogonalLoop=1;jettySize=auto;html=1;" edge="1" parent="1" source="XrT23xFrw-7pHtTjx7TK-32" target="XrT23xFrw-7pHtTjx7TK-37">
          <mxGeometry relative="1" as="geometry">
            <Array as="points">
              <mxPoint x="630" y="680" />
              <mxPoint x="630" y="1040" />
            </Array>
          </mxGeometry>
        </mxCell>
        <mxCell id="XrT23xFrw-7pHtTjx7TK-32" value="i = 0; i &amp;lt; n" style="rhombus;whiteSpace=wrap;html=1;" vertex="1" parent="1">
          <mxGeometry x="400" y="640" width="80" height="80" as="geometry" />
        </mxCell>
        <mxCell id="XrT23xFrw-7pHtTjx7TK-36" style="edgeStyle=orthogonalEdgeStyle;rounded=0;orthogonalLoop=1;jettySize=auto;html=1;exitX=0.5;exitY=1;exitDx=0;exitDy=0;entryX=0;entryY=0.5;entryDx=0;entryDy=0;" edge="1" parent="1" source="XrT23xFrw-7pHtTjx7TK-33" target="XrT23xFrw-7pHtTjx7TK-32">
          <mxGeometry relative="1" as="geometry">
            <Array as="points">
              <mxPoint x="440" y="920" />
              <mxPoint x="260" y="920" />
              <mxPoint x="260" y="680" />
            </Array>
          </mxGeometry>
        </mxCell>
        <mxCell id="XrT23xFrw-7pHtTjx7TK-33" value="&lt;div style=&quot;text-align: justify;&quot;&gt;&lt;br&gt;&lt;/div&gt;&lt;div style=&quot;color: rgb(173, 186, 199); font-family: Consolas, &amp;quot;Courier New&amp;quot;, monospace; font-weight: normal; font-size: 14px; line-height: 19px;&quot;&gt;&lt;div style=&quot;text-align: justify;&quot;&gt;&lt;span style=&quot;background-color: rgb(24, 20, 29);&quot;&gt;&lt;span style=&quot;color: #f47067;&quot;&gt;for&lt;/span&gt;&lt;span style=&quot;color: #adbac7;&quot;&gt;(&lt;/span&gt;&lt;span style=&quot;color: #f47067;&quot;&gt;int&lt;/span&gt;&lt;span style=&quot;color: #adbac7;&quot;&gt; &lt;/span&gt;&lt;span style=&quot;color: #adbac7;&quot;&gt;i&lt;/span&gt;&lt;span style=&quot;color: #adbac7;&quot;&gt; &lt;/span&gt;&lt;span style=&quot;color: #f47067;&quot;&gt;=&lt;/span&gt;&lt;span style=&quot;color: #adbac7;&quot;&gt; &lt;/span&gt;&lt;span style=&quot;color: #6cb6ff;&quot;&gt;0&lt;/span&gt;&lt;span style=&quot;color: #adbac7;&quot;&gt;; &lt;/span&gt;&lt;span style=&quot;color: #adbac7;&quot;&gt;i&lt;/span&gt;&lt;span style=&quot;color: #adbac7;&quot;&gt; &lt;/span&gt;&lt;span style=&quot;color: #f47067;&quot;&gt;&amp;lt;&lt;/span&gt;&lt;span style=&quot;color: #adbac7;&quot;&gt; &lt;/span&gt;&lt;span style=&quot;color: #adbac7;&quot;&gt;n&lt;/span&gt;&lt;span style=&quot;color: #adbac7;&quot;&gt;; &lt;/span&gt;&lt;span style=&quot;color: #f47067;&quot;&gt;++&lt;/span&gt;&lt;span style=&quot;color: #adbac7;&quot;&gt;i&lt;/span&gt;&lt;span style=&quot;color: #adbac7;&quot;&gt;){&lt;/span&gt;&lt;/span&gt;&lt;/div&gt;&lt;div style=&quot;text-align: justify;&quot;&gt;&lt;span style=&quot;background-color: rgb(24, 20, 29);&quot;&gt;&lt;span style=&quot;color: #adbac7;&quot;&gt;&amp;nbsp; &amp;nbsp; &amp;nbsp; &amp;nbsp; &lt;/span&gt;&lt;span style=&quot;color: #adbac7;&quot;&gt;diff&lt;/span&gt;&lt;span style=&quot;color: #adbac7;&quot;&gt; &lt;/span&gt;&lt;span style=&quot;color: #f47067;&quot;&gt;+=&lt;/span&gt;&lt;span style=&quot;color: #adbac7;&quot;&gt; &lt;/span&gt;&lt;span style=&quot;color: #dcbdfb;&quot;&gt;abs&lt;/span&gt;&lt;span style=&quot;color: #adbac7;&quot;&gt;(&lt;/span&gt;&lt;span style=&quot;color: #adbac7;&quot;&gt;arr&lt;/span&gt;&lt;span style=&quot;color: #adbac7;&quot;&gt;[&lt;/span&gt;&lt;span style=&quot;color: #adbac7;&quot;&gt;i&lt;/span&gt;&lt;span style=&quot;color: #adbac7;&quot;&gt;] &lt;/span&gt;&lt;span style=&quot;color: #f47067;&quot;&gt;-&lt;/span&gt;&lt;span style=&quot;color: #adbac7;&quot;&gt; &lt;/span&gt;&lt;span style=&quot;color: #adbac7;&quot;&gt;mediana&lt;/span&gt;&lt;span style=&quot;color: #adbac7;&quot;&gt;);&lt;/span&gt;&lt;/span&gt;&lt;/div&gt;&lt;div style=&quot;text-align: justify;&quot;&gt;&lt;span style=&quot;color: rgb(173, 186, 199); background-color: rgb(24, 20, 29);&quot;&gt;&amp;nbsp; &amp;nbsp; }&lt;/span&gt;&lt;/div&gt;&lt;/div&gt;&lt;span style=&quot;background-color: rgb(24, 20, 29);&quot;&gt;&lt;div style=&quot;text-align: justify;&quot;&gt;&lt;br&gt;&lt;/div&gt;&lt;/span&gt;" style="rounded=1;whiteSpace=wrap;html=1;" vertex="1" parent="1">
          <mxGeometry x="290" y="840" width="300" height="60" as="geometry" />
        </mxCell>
        <mxCell id="XrT23xFrw-7pHtTjx7TK-35" value="Yes" style="text;html=1;strokeColor=none;fillColor=none;align=center;verticalAlign=middle;whiteSpace=wrap;rounded=0;" vertex="1" parent="1">
          <mxGeometry x="430" y="730" width="60" height="30" as="geometry" />
        </mxCell>
        <mxCell id="XrT23xFrw-7pHtTjx7TK-37" value="Cout diff;" style="rounded=1;whiteSpace=wrap;html=1;" vertex="1" parent="1">
          <mxGeometry x="380" y="1010" width="120" height="60" as="geometry" />
        </mxCell>
        <mxCell id="XrT23xFrw-7pHtTjx7TK-39" value="No" style="text;html=1;align=center;verticalAlign=middle;resizable=0;points=[];autosize=1;strokeColor=none;fillColor=none;" vertex="1" parent="1">
          <mxGeometry x="480" y="648" width="40" height="30" as="geometry" />
        </mxCell>
      </root>
    </mxGraphModel>
  </diagram>
</mxfile>
